<?xml version="1.0" ?><svg id="Layer_1" style="enable-background:new 0 0 48 48;" version="1.1" viewBox="0 0 48 48" xml:space="preserve" xmlns="http://www.w3.org/2000/svg" xmlns:xlink="http://www.w3.org/1999/xlink"><style type="text/css">
	.st0{fill:#F9B17B;}
	.st1{fill:#F9AE7B;}
	.st2{opacity:0.5;}
	.st3{fill:#F69164;}
	.st4{fill:#603813;}
	.st5{fill:#3B2314;}
	.st6{fill:#FFFFFF;}
	.st7{fill:#009345;}
	.st8{fill:#F8B677;}
	.st9{fill:#8A5D3B;}
	.st10{fill:#A87C4F;}
	.st11{fill:#321B0F;}
	.st12{fill:#404041;}
	.st13{fill:#929497;}
	.st14{fill:#754C28;}
	.st15{fill:#009687;}
	.st16{fill:#C3996B;}
	.st17{fill:#FAAF40;}
	.st18{fill:#E89E3C;}
	.st19{fill:#D0D2D3;}
	.st20{fill:#58595B;}
	.st21{fill:#EAA476;}
	.st22{fill:#E29C75;}
	.st23{fill:#D5855B;}
	.st24{fill:#F05A28;}
	.st25{fill:#F6921E;}
	.st26{fill:#783340;}
	.st27{fill:#843A42;}
	.st28{fill:#6D6E70;}
	.st29{fill:#EE4036;}
	.st30{fill:#FDED16;}
	.st31{fill:#231F20;}
	.st32{fill:#885A3D;}
	.st33{fill:#5C3418;}
	.st34{fill:#C49291;}
	.st35{fill:#262261;}
	.st36{fill:#E6E7E8;}
</style><g><g><path class="st29" d="M36.6,23.39c0.65,0.91-0.32,1.8,0.26,3.25c0.52,1.3,1.61,1.34,1.99,2.77c0.14,0.53,0.18,1.23,0,1.69    c-0.95,2.44-10.07,3.22-11.61-0.04c-1.3-2.75,2.85-8.21,6.63-8.49C34.19,22.54,35.91,22.42,36.6,23.39z"/></g><g><path class="st29" d="M19.88,23.39c0.65,0.91-0.32,1.8,0.26,3.25c0.52,1.3,1.61,1.34,1.99,2.77c0.14,0.53,0.18,1.23,0,1.69    c-0.95,2.44-10.07,3.22-11.61-0.04c-1.3-2.75,2.85-8.21,6.63-8.49C17.47,22.54,19.19,22.42,19.88,23.39z"/></g><g><g><path class="st0" d="M35.73,24.22H12.35c-1.29,0-2.34-1.05-2.34-2.34v-0.55c0-1.29,1.05-2.34,2.34-2.34h23.38     c1.29,0,2.34,1.05,2.34,2.34v0.55C38.07,23.17,37.02,24.22,35.73,24.22z"/></g><g><rect class="st1" height="5.39" width="5.94" x="21.18" y="31.68"/></g><g class="st2"><path class="st23" d="M24.71,27.12c-0.1-0.03-0.2-0.06-0.3-0.08c-0.65-0.02-1.3,0-1.95,0.05c-0.43,0.08-0.86,0.17-1.28,0.26v6.58     c0.88,0.26,1.6,0.36,2,0.41c0.38,0.05,0.81,0.08,1.3,0.06c0.42-0.01,0.81-0.05,1.14-0.11c0.3-0.04,0.85-0.13,1.53-0.34     c0-0.04,0-0.08,0-0.12V27.5C26.31,27.47,25.48,27.35,24.71,27.12z"/></g><g><path class="st0" d="M25.58,32.84c-0.34,0.05-0.74,0.1-1.17,0.11c-0.5,0.01-0.94-0.02-1.33-0.06c-1.04-0.11-4.22-0.59-6.72-3.17     c-0.48-0.49-1.74-1.82-2.41-3.98c-0.28-0.91-0.44-1.88-0.44-2.89v-7.47c0-5.36,4.35-9.71,9.71-9.71h1.62     c5.36,0,9.71,4.35,9.71,9.71v7.47c-0.02,0.8-0.21,4.09-2.84,6.87C29.33,32.22,26.44,32.72,25.58,32.84z"/></g></g><g><path class="st9" d="M24.67,26.06c-0.02,0-0.03,0-0.05,0c-1.69-0.35-2.46-0.74-2.48-1.26c-0.02-0.35,0.29-0.55,0.62-0.77    c0.29-0.19,0.64-0.42,0.9-0.8c0.4-0.62,0.45-1.48,0.14-2.58c-0.04-0.13,0.04-0.26,0.16-0.29c0.13-0.04,0.26,0.04,0.29,0.16    c0.35,1.23,0.28,2.23-0.2,2.97c-0.31,0.46-0.72,0.74-1.03,0.94c-0.18,0.12-0.41,0.27-0.4,0.35c0,0.04,0.08,0.4,2.11,0.82    c0.13,0.03,0.21,0.15,0.18,0.28C24.88,25.98,24.78,26.06,24.67,26.06z"/></g><g><ellipse class="st11" cx="29.78" cy="21.66" rx="1.08" ry="1.69"/></g><g><ellipse class="st11" cx="18.91" cy="21.66" rx="1.08" ry="1.69"/></g><g><path class="st6" d="M25.55,27.97c-0.26,0.03-1.05,0.1-2.06,0c-0.52-0.05-1.17-0.16-1.9-0.37c0.11,0.15,1.14,1.42,2.9,1.4    c1.69-0.02,2.68-1.23,2.8-1.39C26.85,27.75,26.26,27.89,25.55,27.97z"/></g><g><path class="st29" d="M36.8,11.97c-0.44-2.01-1.46-3.42-1.94-4.08c-0.29-0.39-1.32-1.74-3.12-2.95c-3.69-2.47-7.67-2.34-9.76-2.28    c-1.34,0.04-3.24,0.12-5.46,1.04c-0.3,0.12-1.71,0.72-3.31,1.95c-0.93,0.71-2.08,1.59-2.92,2.92c-1.49,2.35-1.32,4.95-1.14,6.21    c0.02,0.71,0.22,2.16,1.18,3.57c1.48,2.18,3.78,3.21,5.12,2.3c0.78-0.53,1.07-1.59,0.89-2.81c0.43,0.08,0.88,0.12,1.35,0.12    c3,0,5.44-1.79,5.44-4c0-0.02,0-0.03,0-0.05c0.35,0.26,0.76,0.45,1.2,0.55c0,0,0.35,0.08,0.72,0.08c0.79,0,1.97-0.68,3-1.91    c0.09-0.02,0.24-0.04,0.41-0.06c0.6-0.05,1.06,0.07,2.58,0.48c0.23,0.06,0.41,0.11,0.54,0.15c0.08,1.12,0.45,4.06,2.56,5.8    c0.5,0.42,0.76,0.48,0.97,0.45C36.45,19.33,37.54,15.33,36.8,11.97z"/></g><g><path class="st29" d="M27.87,18.16c0.35,0.28,0.98,0.07,2.34,0.29c1.28,0.21,1.99,0.6,2.18,0.47c0.18-0.12-0.3-0.54-0.37-0.6    c-0.58-0.49-1.43-0.7-2.19-0.87c-0.88-0.2-1.38-0.31-1.75-0.16C27.68,17.47,27.56,17.92,27.87,18.16z"/></g><g><path class="st5" d="M30.61,21.11c-0.27,0-0.48-0.07-0.56-0.1c-0.12-0.05-0.18-0.19-0.13-0.31c0.05-0.12,0.19-0.18,0.31-0.13    c0.09,0.04,0.43,0.15,0.79-0.02c0.35-0.16,0.49-0.47,0.53-0.56c0.05-0.12,0.18-0.18,0.3-0.14c0.12,0.05,0.18,0.18,0.14,0.3    c-0.07,0.17-0.27,0.6-0.77,0.82C31,21.08,30.79,21.11,30.61,21.11z"/></g><g><path class="st5" d="M17.95,21.21c-0.18,0-0.39-0.03-0.6-0.13c-0.5-0.23-0.71-0.65-0.77-0.82c-0.05-0.12,0.02-0.26,0.14-0.3    c0.12-0.05,0.26,0.01,0.3,0.14c0.03,0.09,0.18,0.4,0.53,0.56c0.36,0.16,0.7,0.05,0.79,0.02c0.12-0.05,0.26,0.01,0.31,0.13    c0.05,0.12-0.01,0.26-0.13,0.31C18.42,21.14,18.22,21.21,17.95,21.21z"/></g><g><path class="st0" d="M35.5,37.98c-2.24-0.96-5.95-2.23-10.7-2.4c-4.69-0.17-8.44,0.79-10.74,1.58c-0.74,0.22-2.21,0.78-3.58,2.14    c-0.52,0.52-1.56,1.69-2.13,3.51c-0.25,0.81-0.39,1.66-0.39,2.55v0h32.05v0c-0.01-0.83-0.17-3.89-2.51-6.06    C36.83,38.67,36.12,38.25,35.5,37.98z"/></g><g><path class="st25" d="M9.68,40.09c-0.47,0.63-0.98,1.49-1.32,2.59c-0.25,0.81-0.39,1.66-0.39,2.55v0h32.05v0    c-0.01-0.72-0.13-3.1-1.67-5.14H9.68z"/></g><g><circle class="st30" cx="34.65" cy="23.94" r="0.57"/></g><g><circle class="st30" cx="13.41" cy="23.97" r="0.6"/></g></g></svg>